# xmcd
# 
# Track frame offsets:
#     150
#     25155
#     55787
#     74137
#     98025
#     116512
#     141232
#     165115
#     190915
#     222490
#     251432
# 
# Disc length: 3658
# 
# Revision: 1
# Processed by: cddbd v1.5.2PL0 Copyright (c) Steve Scherf et al.
# Submitted via: fre:ac v1.0.17
# 
DISCID=9a0e480b
DTITLE=Eric Reed - Impressive and Romantic - The Great Composers We Love -
DYEAR=2003
DGENRE=Jazz
TTITLE0=Out Of The Past (Benny Golson)
TTITLE1=I Let A Song Go Out Of My Heart (Duke Ellington)
TTITLE2=I Want To Be Happy (Vincent Youmans)
TTITLE3=Can't Help Singing (Jerome Kern)
TTITLE4=Miles Ahead (Miles Davis)
TTITLE5=Johnny Guitar (Victor Young)
TTITLE6=Loose Bloose (Bill Evans)
TTITLE7=So In Love (Cole Porter)
TTITLE8=Blues In The Night (Harold Arlen)
TTITLE9=Blah, Blah, Blah (George Gershwin)
TTITLE10=It's Easy To Remember (Richard Rodgers)
EXTD=YEAR: 2003
EXTT0=
EXTT1=
EXTT2=
EXTT3=
EXTT4=
EXTT5=
EXTT6=
EXTT7=
EXTT8=
EXTT9=
EXTT10=
PLAYORDER=
